<svg xmlns="http://www.w3.org/2000/svg" width="512" height="512" viewBox="0 0 438.043 438.043"><path d="M413.415 43.849h-8.369c-2.035-2.863-4.295-5.632-6.84-8.146-11.774-11.804-27.432-18.297-44.104-18.297-15.653 0-30.358 5.792-41.875 16.26-7.351-6.841-16.166-13.143-26.25-18.487-24.283-12.855-50.373-16.96-69.721-11.01-10.375 3.213-18.172 9.228-22.467 17.406-3.499 6.522-4.517 14.16-3.116 22.273h-80.888c-13.619 0-24.63 11.042-24.63 24.629V210.46c-2.258-.255-4.551-.414-6.844-.414-16.674 0-32.328 6.523-44.134 18.332-11.774 11.772-18.264 27.427-18.264 44.069 0 15.657 5.79 30.421 16.259 41.908-6.84 7.351-13.142 16.164-18.486 26.251-12.855 24.28-16.961 50.339-11.01 69.721 3.212 10.402 9.226 18.166 17.403 22.496 8.146 4.296 17.979 4.9 28.354 1.687 17.628-5.41 35.099-20.969 47.793-42.036 3.882 2.641 8.465 4.267 13.558 4.267h303.63c13.62 0 24.63-11.011 24.63-24.632V68.479c0-13.588-11.009-24.63-24.629-24.63zm-61.698-16.196c14.539 0 28.285 5.665 38.564 15.974 10.311 10.31 16.005 24.024 16.005 38.598 0 5.092-.763 10.056-2.103 14.797l-67.297-67.3c4.773-1.337 9.74-2.069 14.831-2.069zm34.779 96.925l-3.884 3.914-27.336-27.334c3.187.573 6.461 1.655 9.739 3.373 7.734 4.105 15.114 11.105 21.481 20.047zm-13.621-27.016c-1.05-.635-2.104-1.367-3.15-1.94-8.306-4.358-16.641-5.886-24.47-4.487l-9.037-9.069c.701-9.323-2.191-19.443-8.21-29.338l44.867 44.834zm-43.688 18.01a36.422 36.422 0 0 1 3.407-5.25l34.047 34.08-9.8 9.833c-.255.255-.573.477-.827.764l-30.356-30.358c.951-3.245 2.096-6.299 3.529-9.069zm-18.805-69.208c7.252 8.018 12.343 16.484 14.569 24.47l-19.506-19.506 4.937-4.964zm8.269 50.053c-3.054 2.704-6.87 4.869-11.514 6.301-.892.254-1.845.413-2.741.635l-25.455-25.456c.254-.254.447-.54.703-.794l9.862-9.833 29.145 29.147zM202.7 26.285c3.024-5.761 8.751-10.056 16.545-12.442 16.613-5.154 40.348-1.177 62.021 10.247 9.006 4.74 16.959 10.502 23.61 16.705l-33.157 33.159a61.31 61.31 0 0 0-14.798 23.833c-3.974-1.56-7.923-3.279-11.807-5.346-21.667-11.455-38.279-28.861-43.402-45.471-2.418-7.766-2.066-14.926.988-20.685zm68.924 76.178a132.388 132.388 0 0 1-5.794-1.591c.32-1.082.604-2.164.954-3.245l4.84 4.836zM103.037 261.566c4.108-7.732 11.105-15.114 20.048-21.477l3.882 3.881-27.301 27.335c.572-3.185 1.652-6.43 3.371-9.739zm20.109 39.361c-3.243-.954-6.332-2.099-9.034-3.532a33.822 33.822 0 0 1-5.252-3.372l34.081-34.08 9.8 9.801c.256.254.478.573.765.828l-30.36 30.355zm42.483-10.628c1.241 3.5 2.067 7.191 2.577 10.884a112.307 112.307 0 0 1-15.846 2.386l13.269-13.27zm-75.987-8.973l-9.071 9.037c-9.323-.729-19.441 2.195-29.338 8.212l44.834-44.837c-.635 1.021-1.368 2.038-1.937 3.119-4.394 8.275-5.889 16.673-4.488 24.469zm-20.334 20.303l-19.476 19.507-4.962-4.933c8.017-7.288 16.484-12.349 24.438-14.574zm-41.082-11.932c-1.333-4.772-2.067-9.739-2.067-14.829 0-14.541 5.665-28.256 15.975-38.565 10.31-10.309 23.991-16.003 38.567-16.003 5.091 0 10.053.761 14.828 2.066l-67.303 67.331zm62.718 91.768c-11.455 21.671-28.86 38.31-45.47 43.403-7.797 2.416-14.925 2.066-20.687-.986-5.757-3.022-10.053-8.75-12.473-16.516-5.122-16.641-1.178-40.38 10.278-62.048 4.742-9.006 10.502-16.958 16.739-23.61l33.092 33.156c6.842 6.809 14.99 11.773 23.867 14.827-1.591 3.947-3.308 7.892-5.346 11.774zm8.434-20.683c-1.114-.317-2.194-.634-3.211-1.02l4.771-4.804c-.446 1.942-.986 3.85-1.56 5.824zm-22.973-13.111a15.332 15.332 0 0 1-.795-.763l-9.864-9.831 29.18-29.146c2.703 3.056 4.866 6.875 6.3 11.521.254.857.414 1.845.603 2.736l-25.424 25.483zm32.966-41.367c1.812.988 3.785 1.782 5.82 2.58l-5.283 5.249c-1.523-4.167-3.433-7.955-5.854-11.104 1.658 1.145 3.438 2.291 5.317 3.275zm4.803 56.546c-1.624 0-3.247-.063-4.836-.192 1.973-6.777 3.277-13.46 3.817-19.887l10.055-10.056c-1.432 6.588.417 13.78 5.632 18.868l9.739 5.505c-7.477 3.756-15.783 5.762-24.407 5.762zm24.63-45.724l3.119-3.119c8.494.224 17.501-.669 26.601-2.61-.382 7.317-2.197 14.351-5.344 20.811l-5.856-9.737c-5.094-4.966-12.061-6.747-18.52-5.345zm8.688 47.634c.796-.478 1.623-.828 2.386-1.306l17.691-17.979 28.003 46.425-48.08-27.14zm80.569-102.492c-8.019 15.176-27.238 29.018-50.278 36.306-2.386-12.029-8.242-23.104-17.086-31.948l-30.93-30.898c7.319-4.358 15.593-8.051 24.374-10.786 35.448-10.915 70.642-3.213 76.816 16.803 1.909 6.233.92 13.328-2.896 20.523zm7.575-62.88l27.331-48.368c.063.096.094.223.159.351l19.823 19.475-47.313 28.542zm39.36-69.05l-5.503 9.769a54.446 54.446 0 0 1-5.762-24.438c0-1.623.064-3.246.192-4.836 6.779 1.973 13.43 3.277 19.92 3.819l10.055 10.086c-6.62-1.465-13.81.412-18.902 5.6zm19.409 34.335l9.706-5.855c4.963-5.061 6.714-12.061 5.347-18.52l3.147 3.118c-.253 8.496.639 17.501 2.579 26.633-7.285-.413-14.348-2.227-20.779-5.376zm23.292-47.986l-5.218-5.282c4.137-1.528 7.957-3.405 11.074-5.855-1.145 1.687-2.29 3.438-3.277 5.314-.986 1.844-1.781 3.818-2.579 5.823zm5.347 37.167l13.239 13.27c-3.501 1.24-7.193 2.067-10.883 2.576a107.944 107.944 0 0 1-2.356-15.846zm61.794 78.598c-6.231 1.909-13.299.922-20.521-2.896-15.179-7.985-29.021-27.237-36.308-50.276 12.027-2.386 23.104-8.21 31.948-17.087l30.93-30.897c4.324 7.318 8.019 15.56 10.757 24.342 10.879 35.477 3.211 70.639-16.806 76.814z" data-original="#000000" class="active-path" data-old_color="#000000" fill="#353535"/></svg>